<svg version="1.1" xmlns="http://www.w3.org/2000/svg" viewBox="0 0 1398.222926090915 777.8950602198322" width="2796.44585218183" height="1555.7901204396644">
  <!-- svg-source:excalidraw -->
  
  <defs>
    <style class="style-fonts">
      @font-face {
        font-family: "Virgil";
        src: url("https://excalidraw.com/Virgil.woff2");
      }
      @font-face {
        font-family: "Cascadia";
        src: url("https://excalidraw.com/Cascadia.woff2");
      }
      @font-face {
        font-family: "Assistant";
        src: url("https://app.excalidraw.com//dist/excalidraw-assets/Assistant-Regular.woff2");
      }
    </style>
    
  </defs>
  <rect x="0" y="0" width="1398.222926090915" height="777.8950602198322" fill="#ffffff"></rect><g stroke-linecap="round" transform="translate(532.3956932659298 24.81518827331024) rotate(0 168.24450175198024 109.2614406055186)"><path d="M32 0 C88.01 -0.36, 144.9 1.67, 304.49 0 M32 0 C126.63 -1.41, 220.75 -1.73, 304.49 0 M304.49 0 C325.77 -0.19, 338.11 8.87, 336.49 32 M304.49 0 C327.44 -0.38, 338.27 11.62, 336.49 32 M336.49 32 C335.38 70.53, 334.65 113.32, 336.49 186.52 M336.49 32 C336.14 88.93, 337.09 147.76, 336.49 186.52 M336.49 186.52 C335.59 206.31, 327.27 220.21, 304.49 218.52 M336.49 186.52 C334.88 206.58, 327.19 220.75, 304.49 218.52 M304.49 218.52 C197.04 217.42, 87.76 216.53, 32 218.52 M304.49 218.52 C220.88 219.09, 136.59 218.74, 32 218.52 M32 218.52 C11.71 219.42, -0.49 208.8, 0 186.52 M32 218.52 C9.71 220.09, 0.13 209.25, 0 186.52 M0 186.52 C-1.82 127.35, -1.69 68.27, 0 32 M0 186.52 C-0.81 141.36, -0.33 96.59, 0 32 M0 32 C1.22 11.81, 9.21 -0.93, 32 0 M0 32 C-1.31 11.32, 9.28 2.12, 32 0" stroke="#1971c2" stroke-width="2" fill="none"></path></g><g transform="translate(657.2202426253318 29.81518827331024) rotate(0 43.419952392578125 25)"><text x="43.419952392578125" y="0" font-family="Virgil, Segoe UI Emoji" font-size="20px" fill="#1971c2" text-anchor="middle" style="white-space: pre;" direction="ltr" dominant-baseline="text-before-edge">SERVICE</text><text x="43.419952392578125" y="25" font-family="Virgil, Segoe UI Emoji" font-size="20px" fill="#1971c2" text-anchor="middle" style="white-space: pre;" direction="ltr" dominant-baseline="text-before-edge">customer</text></g><g stroke-linecap="round" transform="translate(554.3866452811349 116.63275735065167) rotate(0 147.91488589829635 47.09068879156939)"><path d="M23.55 0 C97.95 0.63, 175.71 3.58, 272.28 0 C291.42 -2.23, 295.8 10.42, 295.83 23.55 C297.38 41.66, 295.05 51.89, 295.83 70.64 C297.16 87.1, 290.77 91.67, 272.28 94.18 C175.82 97.62, 87.53 95.63, 23.55 94.18 C7.54 95.1, 0.83 89.23, 0 70.64 C1.08 64.13, -0.81 49.17, 0 23.55 C-2.38 7.52, 8.23 0.25, 23.55 0" stroke="none" stroke-width="0" fill="#a5d8ff"></path><path d="M23.55 0 C94.38 2.33, 164.8 1.64, 272.28 0 M23.55 0 C112.06 0.1, 199.28 0.65, 272.28 0 M272.28 0 C289.6 -1.8, 297.24 7.51, 295.83 23.55 M272.28 0 C289.77 0.95, 294.95 5.9, 295.83 23.55 M295.83 23.55 C295.34 38.46, 297.31 52.33, 295.83 70.64 M295.83 23.55 C296.48 41.29, 295.28 56.54, 295.83 70.64 M295.83 70.64 C297.28 88.02, 286.58 93.07, 272.28 94.18 M295.83 70.64 C297.19 88.56, 290.26 92.48, 272.28 94.18 M272.28 94.18 C205.24 92.02, 136.87 94.3, 23.55 94.18 M272.28 94.18 C187.44 92.75, 103.47 93.79, 23.55 94.18 M23.55 94.18 C7.35 95.13, -0.84 87.7, 0 70.64 M23.55 94.18 C7.98 95.58, 2.05 87.71, 0 70.64 M0 70.64 C-0.56 57.38, 0.05 40.1, 0 23.55 M0 70.64 C0.02 60.17, 1.01 49.65, 0 23.55 M0 23.55 C-1.46 6.92, 6.71 0.57, 23.55 0 M0 23.55 C-1.38 9.97, 9.56 0.62, 23.55 0" stroke="#1e1e1e" stroke-width="2" fill="none"></path></g><g transform="translate(622.1916144924194 151.22344614222106) rotate(0 80.10991668701172 12.5)"><text x="80.10991668701172" y="0" font-family="Virgil, Segoe UI Emoji" font-size="20px" fill="#1e1e1e" text-anchor="middle" style="white-space: pre;" direction="ltr" dominant-baseline="text-before-edge">create-customer</text></g><g stroke-linecap="round" transform="translate(532.3956932659298 406.4720511761168) rotate(0 168.24450175198024 109.2614406055186)"><path d="M32 0 C117.83 -1.15, 205.44 -2.83, 304.49 0 M32 0 C106.59 0.06, 180.93 1.08, 304.49 0 M304.49 0 C326.03 0.35, 336.87 9.78, 336.49 32 M304.49 0 C325.56 -1.23, 336.83 11.04, 336.49 32 M336.49 32 C336.31 85.14, 333.87 143.06, 336.49 186.52 M336.49 32 C334.63 72.87, 335.1 112.8, 336.49 186.52 M336.49 186.52 C337.81 208.61, 323.94 219.43, 304.49 218.52 M336.49 186.52 C337 210.03, 323.61 217.45, 304.49 218.52 M304.49 218.52 C234.85 218.78, 162.72 219.35, 32 218.52 M304.49 218.52 C211.49 220.09, 118.43 220.4, 32 218.52 M32 218.52 C8.74 218.18, 0.04 208.74, 0 186.52 M32 218.52 C9.98 217.86, 0.93 207.13, 0 186.52 M0 186.52 C-1.9 151.12, -0.6 118.26, 0 32 M0 186.52 C0.38 147.81, 0.57 107.28, 0 32 M0 32 C-1.98 9.89, 11.65 1.35, 32 0 M0 32 C-1.83 12.13, 9.41 -0.27, 32 0" stroke="#1971c2" stroke-width="2" fill="none"></path></g><g transform="translate(648.0802432356834 411.4720511761168) rotate(0 52.55995178222656 25)"><text x="52.55995178222656" y="0" font-family="Virgil, Segoe UI Emoji" font-size="20px" fill="#1971c2" text-anchor="middle" style="white-space: pre;" direction="ltr" dominant-baseline="text-before-edge">SERVICE</text><text x="52.55995178222656" y="25" font-family="Virgil, Segoe UI Emoji" font-size="20px" fill="#1971c2" text-anchor="middle" style="white-space: pre;" direction="ltr" dominant-baseline="text-before-edge">validations</text></g><g stroke-linecap="round" transform="translate(554.386645281135 498.2896202534582) rotate(0 147.9148858982963 47.09068879156939)"><path d="M23.55 0 C91.19 4.68, 155.49 -0.28, 272.28 0 C290.35 2.95, 296.96 6.11, 295.83 23.55 C294.58 40.57, 294.64 57.93, 295.83 70.64 C297.85 89.75, 286.08 91.14, 272.28 94.18 C198.53 94.93, 131.79 95.18, 23.55 94.18 C8.49 93.23, 0.84 86.17, 0 70.64 C-0.56 60.97, 1.7 50.02, 0 23.55 C-2.25 10.22, 8.53 -1.34, 23.55 0" stroke="none" stroke-width="0" fill="#a5d8ff"></path><path d="M23.55 0 C115.86 -1.86, 207.6 -0.39, 272.28 0 M23.55 0 C92.3 1.81, 160.28 1.39, 272.28 0 M272.28 0 C288.36 -0.89, 295.6 6.78, 295.83 23.55 M272.28 0 C288.32 0.38, 297.12 6.17, 295.83 23.55 M295.83 23.55 C294.56 34.53, 295.24 42.32, 295.83 70.64 M295.83 23.55 C295.03 36.9, 296.09 49.47, 295.83 70.64 M295.83 70.64 C293.94 87.24, 288.43 96.07, 272.28 94.18 M295.83 70.64 C293.61 85.26, 287.05 94.51, 272.28 94.18 M272.28 94.18 C197.17 95.37, 123.48 94.37, 23.55 94.18 M272.28 94.18 C178.52 94.14, 83.2 93.78, 23.55 94.18 M23.55 94.18 C7.89 95.06, -0.6 85.75, 0 70.64 M23.55 94.18 C8.78 93.45, -1.67 87.67, 0 70.64 M0 70.64 C0.53 58.27, -0.68 41.29, 0 23.55 M0 70.64 C0.13 57.05, -0.94 44.3, 0 23.55 M0 23.55 C0.98 9.2, 6.26 1.27, 23.55 0 M0 23.55 C-1.26 7.58, 10.05 -0.25, 23.55 0" stroke="#1e1e1e" stroke-width="2" fill="none"></path></g><g transform="translate(619.1916297512087 532.8803090450276) rotate(0 83.10990142822266 12.5)"><text x="83.10990142822266" y="0" font-family="Virgil, Segoe UI Emoji" font-size="20px" fill="#1e1e1e" text-anchor="middle" style="white-space: pre;" direction="ltr" dominant-baseline="text-before-edge">process-passport</text></g><g stroke-linecap="round" transform="translate(1051.7339225869546 28.17106787142734) rotate(0 168.24450175198024 369.86199617420243)"><path d="M32 0 C110.05 1.98, 189.57 1.5, 304.49 0 M32 0 C125.62 0, 217.15 0.09, 304.49 0 M304.49 0 C325.47 -0.73, 336.63 11.96, 336.49 32 M304.49 0 C325.19 1.15, 335.04 11.42, 336.49 32 M336.49 32 C337.4 300.17, 336.83 568.94, 336.49 707.72 M336.49 32 C338.52 190.91, 338.72 349.86, 336.49 707.72 M336.49 707.72 C336.48 729.34, 327.78 739.95, 304.49 739.72 M336.49 707.72 C335.13 728.63, 327.25 737.53, 304.49 739.72 M304.49 739.72 C242.8 740.84, 182.42 738.03, 32 739.72 M304.49 739.72 C211.63 740.38, 119.56 741.03, 32 739.72 M32 739.72 C9.92 740.35, -0.61 728.59, 0 707.72 M32 739.72 C9.24 741.68, 1.68 728.06, 0 707.72 M0 707.72 C-3.44 505.23, -3.25 303.3, 0 32 M0 707.72 C-0.58 459.61, -0.79 211.89, 0 32 M0 32 C0.68 11.37, 11.7 0.37, 32 0 M0 32 C-1.73 11.61, 11.32 -0.55, 32 0" stroke="#1971c2" stroke-width="2" fill="none"></path></g><g transform="translate(1176.5784457012394 33.17106787142734) rotate(0 43.39997863769531 25)"><text x="43.39997863769531" y="0" font-family="Virgil, Segoe UI Emoji" font-size="20px" fill="#1971c2" text-anchor="middle" style="white-space: pre;" direction="ltr" dominant-baseline="text-before-edge">SERVICE</text><text x="43.39997863769531" y="25" font-family="Virgil, Segoe UI Emoji" font-size="20px" fill="#1971c2" text-anchor="middle" style="white-space: pre;" direction="ltr" dominant-baseline="text-before-edge">frontend</text></g><g stroke-linecap="round" transform="translate(1074.9200420609143 112.16320977852183) rotate(0 147.91488589829623 47.09068879156939)"><path d="M23.55 0 C75.53 -0.49, 125.71 0.86, 272.28 0 M23.55 0 C100.27 -0.29, 178.34 -0.94, 272.28 0 M272.28 0 C288.12 1.3, 295.28 8.85, 295.83 23.55 M272.28 0 C286.54 0.76, 298.06 8.19, 295.83 23.55 M295.83 23.55 C295.98 37.47, 294.84 49.24, 295.83 70.64 M295.83 23.55 C296.63 38.78, 295.92 54.59, 295.83 70.64 M295.83 70.64 C297.78 86.56, 286.8 93.81, 272.28 94.18 M295.83 70.64 C297.26 84.13, 286.22 92.08, 272.28 94.18 M272.28 94.18 C200.51 94.51, 130.12 95.08, 23.55 94.18 M272.28 94.18 C189.93 94.7, 106.3 94.32, 23.55 94.18 M23.55 94.18 C7.24 93.72, -1.24 88.03, 0 70.64 M23.55 94.18 C9.53 93.18, -0.02 88.61, 0 70.64 M0 70.64 C-0.99 59.18, 1.79 49.14, 0 23.55 M0 70.64 C-0.59 54.79, 0.39 39.18, 0 23.55 M0 23.55 C1.03 8.22, 6.35 0.82, 23.55 0 M0 23.55 C0.65 7.3, 6.61 1.46, 23.55 0" stroke="#2f9e44" stroke-width="2" fill="none"></path></g><g transform="translate(1195.864949626691 134.25389857009122) rotate(0 26.96997833251953 25)"><text x="26.96997833251953" y="0" font-family="Virgil, Segoe UI Emoji" font-size="20px" fill="#2f9e44" text-anchor="middle" style="white-space: pre;" direction="ltr" dominant-baseline="text-before-edge">runWf</text><text x="26.96997833251953" y="25" font-family="Virgil, Segoe UI Emoji" font-size="20px" fill="#2f9e44" text-anchor="middle" style="white-space: pre;" direction="ltr" dominant-baseline="text-before-edge">(kyc)</text></g><g stroke-linecap="round" transform="translate(1075.5039793879043 237.9984536008908) rotate(0 147.91488589829623 47.09068879156939)"><path d="M23.55 0 C114.34 4.28, 206.82 3.99, 272.28 0 C290.16 -2.16, 297.23 4.43, 295.83 23.55 C292.65 40.34, 293.3 53.99, 295.83 70.64 C298.08 87.46, 290.7 97.4, 272.28 94.18 C185.26 90.25, 94.38 92.77, 23.55 94.18 C5.32 91.91, 2.42 85.83, 0 70.64 C2.61 57.7, 3.81 43.16, 0 23.55 C-3 8.99, 8.72 -2.6, 23.55 0" stroke="none" stroke-width="0" fill="#ffec99"></path><path d="M23.55 0 C96.73 -2, 168.69 -0.05, 272.28 0 M272.28 0 C287.89 -0.63, 295.9 9.18, 295.83 23.55 M295.83 23.55 C295.48 40.86, 295.57 55.48, 295.83 70.64 M295.83 70.64 C295.21 87.25, 289.67 94.42, 272.28 94.18 M272.28 94.18 C179.91 97.37, 86.09 96.99, 23.55 94.18 M23.55 94.18 C6.13 96.12, 1.05 86.53, 0 70.64 M0 70.64 C-1.5 53.03, 1.65 32.69, 0 23.55 M0 23.55 C1.96 6.85, 6.9 -0.01, 23.55 0" stroke="#1e1e1e" stroke-width="2.5" fill="none" stroke-dasharray="8 10"></path></g><g transform="translate(1121.7289849151068 260.0891423924602) rotate(0 101.68988037109375 25)"><text x="101.68988037109375" y="0" font-family="Virgil, Segoe UI Emoji" font-size="20px" fill="#1e1e1e" text-anchor="middle" style="white-space: pre;" direction="ltr" dominant-baseline="text-before-edge">putExternalEvent</text><text x="101.68988037109375" y="25" font-family="Virgil, Segoe UI Emoji" font-size="20px" fill="#1e1e1e" text-anchor="middle" style="white-space: pre;" direction="ltr" dominant-baseline="text-before-edge">(passport-submitted)</text></g><g stroke-linecap="round" transform="translate(1074.920042060914 368.8028715084374) rotate(0 147.91488589829635 47.09068879156939)"><path d="M23.55 0 C81.01 -1.66, 140.81 -2.8, 272.28 0 M23.55 0 C75.02 -0.8, 125.68 -1.74, 272.28 0 M272.28 0 C288.03 1.94, 297.63 8.32, 295.83 23.55 M272.28 0 C287.35 -1.19, 295.73 8.87, 295.83 23.55 M295.83 23.55 C297.39 34.37, 295.13 46.92, 295.83 70.64 M295.83 23.55 C295.09 36.49, 295.23 50.38, 295.83 70.64 M295.83 70.64 C294.08 87.46, 287.51 94.8, 272.28 94.18 M295.83 70.64 C295.97 87.97, 287.93 93.77, 272.28 94.18 M272.28 94.18 C211.73 93.37, 149.46 95.03, 23.55 94.18 M272.28 94.18 C202.38 95.79, 132.57 96.07, 23.55 94.18 M23.55 94.18 C7.68 93.61, 0.49 84.85, 0 70.64 M23.55 94.18 C8.35 92.9, 1.99 87.73, 0 70.64 M0 70.64 C-1.22 56.85, -0.04 46.14, 0 23.55 M0 70.64 C0.13 56.05, 0.86 42.62, 0 23.55 M0 23.55 C-1.12 7.75, 9.53 0.66, 23.55 0 M0 23.55 C-2.23 6.26, 6.95 1.11, 23.55 0" stroke="#2f9e44" stroke-width="2" fill="none"></path></g><g transform="translate(1126.5250066945619 390.8935603000068) rotate(0 96.30992126464844 25)"><text x="96.30992126464844" y="0" font-family="Virgil, Segoe UI Emoji" font-size="20px" fill="#2f9e44" text-anchor="middle" style="white-space: pre;" direction="ltr" dominant-baseline="text-before-edge">searchUserTaskRun</text><text x="96.30992126464844" y="25" font-family="Virgil, Segoe UI Emoji" font-size="20px" fill="#2f9e44" text-anchor="middle" style="white-space: pre;" direction="ltr" dominant-baseline="text-before-edge">(user || group)</text></g><g stroke-linecap="round" transform="translate(1074.920042060914 495.83938024451595) rotate(0 147.91488589829635 47.09068879156939)"><path d="M23.55 0 C74.76 -0.81, 127.15 -0.36, 272.28 0 M23.55 0 C94.15 1.43, 165.16 1.07, 272.28 0 M272.28 0 C289.32 -0.87, 295.32 9.11, 295.83 23.55 M272.28 0 C287.84 -1.31, 297.78 7.91, 295.83 23.55 M295.83 23.55 C297.32 41.5, 296.69 57.49, 295.83 70.64 M295.83 23.55 C296.37 35.6, 294.65 45.99, 295.83 70.64 M295.83 70.64 C294.94 84.55, 287.91 94.2, 272.28 94.18 M295.83 70.64 C295.05 84.91, 289.77 95.74, 272.28 94.18 M272.28 94.18 C220.4 93.1, 168.88 94, 23.55 94.18 M272.28 94.18 C179.91 96.47, 85.5 95.68, 23.55 94.18 M23.55 94.18 C7.07 95.02, 0.25 87.5, 0 70.64 M23.55 94.18 C9.72 93.9, -1.58 85.59, 0 70.64 M0 70.64 C-1.87 53.6, -0.42 35.05, 0 23.55 M0 70.64 C0.3 58.73, -0.88 45.13, 0 23.55 M0 23.55 C1.44 8.9, 8.45 1.47, 23.55 0 M0 23.55 C-1.55 6.69, 9.91 -0.82, 23.55 0" stroke="#2f9e44" stroke-width="2" fill="none"></path></g><g transform="translate(1101.1750311086244 517.9300690360853) rotate(0 121.65989685058594 25)"><text x="121.65989685058594" y="0" font-family="Virgil, Segoe UI Emoji" font-size="20px" fill="#2f9e44" text-anchor="middle" style="white-space: pre;" direction="ltr" dominant-baseline="text-before-edge">getUserTaskRun</text><text x="121.65989685058594" y="25" font-family="Virgil, Segoe UI Emoji" font-size="20px" fill="#2f9e44" text-anchor="middle" style="white-space: pre;" direction="ltr" dominant-baseline="text-before-edge">(wfRunId, userTaskGuid)</text></g><g stroke-linecap="round" transform="translate(1074.9200420609143 625.3748234578884) rotate(0 147.91488589829623 47.09068879156939)"><path d="M23.55 0 C118.19 -0.04, 215.62 3.86, 272.28 0 C286.74 0.12, 299.32 7.67, 295.83 23.55 C297.13 38.15, 298.19 51.28, 295.83 70.64 C294.88 89.22, 289.63 90.98, 272.28 94.18 C213.56 92.71, 149.7 96.62, 23.55 94.18 C10.4 92.6, 2.85 89.68, 0 70.64 C-3.2 60.6, -0.08 51.21, 0 23.55 C0.86 10.05, 9.67 -0.04, 23.55 0" stroke="none" stroke-width="0" fill="#b2f2bb"></path><path d="M23.55 0 C86.18 -0.47, 146.5 0.76, 272.28 0 M23.55 0 C102.15 2.09, 179.47 2.53, 272.28 0 M272.28 0 C289.84 -0.11, 297.59 8.79, 295.83 23.55 M272.28 0 C287.47 0.64, 294.06 6.57, 295.83 23.55 M295.83 23.55 C293.98 38.99, 294.13 54.12, 295.83 70.64 M295.83 23.55 C296.69 37.24, 296.49 51.2, 295.83 70.64 M295.83 70.64 C296.59 85.72, 289.26 96.04, 272.28 94.18 M295.83 70.64 C296.43 88.39, 288.86 96.48, 272.28 94.18 M272.28 94.18 C220.63 92.71, 166.46 93.13, 23.55 94.18 M272.28 94.18 C220.49 93.17, 168.83 92.31, 23.55 94.18 M23.55 94.18 C7.85 93.09, -1.23 86.93, 0 70.64 M23.55 94.18 C7.52 93.38, 1.35 86.77, 0 70.64 M0 70.64 C1.21 54.39, -1.49 37.09, 0 23.55 M0 70.64 C0.74 52.61, 1.04 32.74, 0 23.55 M0 23.55 C-0.43 6.4, 7.05 -1.26, 23.55 0 M0 23.55 C0.83 9.48, 9.71 0.54, 23.55 0" stroke="#1e1e1e" stroke-width="2" fill="none"></path></g><g transform="translate(1101.1750311086246 634.9655122494578) rotate(0 121.65989685058594 37.5)"><text x="121.65989685058594" y="0" font-family="Virgil, Segoe UI Emoji" font-size="20px" fill="#1e1e1e" text-anchor="middle" style="white-space: pre;" direction="ltr" dominant-baseline="text-before-edge">completeUserTaskRun</text><text x="121.65989685058594" y="25" font-family="Virgil, Segoe UI Emoji" font-size="20px" fill="#1e1e1e" text-anchor="middle" style="white-space: pre;" direction="ltr" dominant-baseline="text-before-edge">(wfRunId, userTaskGuid)</text><text x="121.65989685058594" y="50" font-family="Virgil, Segoe UI Emoji" font-size="20px" fill="#1e1e1e" text-anchor="middle" style="white-space: pre;" direction="ltr" dominant-baseline="text-before-edge">result</text></g><g stroke-linecap="round" transform="translate(10 10) rotate(0 168.24450175198024 273.16183945092666)"><path d="M32 0 C118.04 -0.95, 207.1 -2.71, 304.49 0 M32 0 C129.35 0.92, 226.49 1, 304.49 0 M304.49 0 C324.17 -0.51, 338 11.95, 336.49 32 M304.49 0 C324.4 -1.58, 335.35 9.91, 336.49 32 M336.49 32 C336.81 185.8, 337.89 339.84, 336.49 514.32 M336.49 32 C336.97 177.78, 337.09 323.8, 336.49 514.32 M336.49 514.32 C337.1 534.23, 324.51 545.28, 304.49 546.32 M336.49 514.32 C337.36 537.03, 326.83 545.85, 304.49 546.32 M304.49 546.32 C201.85 546.95, 101 548.64, 32 546.32 M304.49 546.32 C213.88 544.04, 124.7 544.9, 32 546.32 M32 546.32 C12.05 546.23, 0.54 534.65, 0 514.32 M32 546.32 C10.16 548.02, -1.47 535.78, 0 514.32 M0 514.32 C1.53 372.22, 0.13 231.25, 0 32 M0 514.32 C-0.18 363.49, 0.06 213.7, 0 32 M0 32 C0.01 11.87, 11.16 1.43, 32 0 M0 32 C0.42 9.7, 12.01 -0.53, 32 0" stroke="#1971c2" stroke-width="2" fill="none"></path></g><g transform="translate(117.97456614407008 15) rotate(0 60.269935607910156 25)"><text x="60.269935607910156" y="0" font-family="Virgil, Segoe UI Emoji" font-size="20px" fill="#1971c2" text-anchor="middle" style="white-space: pre;" direction="ltr" dominant-baseline="text-before-edge">SERVICE</text><text x="60.269935607910156" y="25" font-family="Virgil, Segoe UI Emoji" font-size="20px" fill="#1971c2" text-anchor="middle" style="white-space: pre;" direction="ltr" dominant-baseline="text-before-edge">notifications</text></g><g stroke-linecap="round" transform="translate(29.361539524235354 208.92461550030953) rotate(0 147.9148858982963 47.09068879156939)"><path d="M23.55 0 C106.07 -0.89, 185.75 4.46, 272.28 0 C291.25 -2.63, 295.93 11.1, 295.83 23.55 C297.3 37.04, 296.69 50.68, 295.83 70.64 C293.86 89.68, 288.76 93.04, 272.28 94.18 C176.35 92.74, 88.71 93.64, 23.55 94.18 C6.24 92.99, -2.45 86.26, 0 70.64 C-2.57 59.66, -1.08 46.96, 0 23.55 C1.57 7.5, 4.36 -0.27, 23.55 0" stroke="none" stroke-width="0" fill="#a5d8ff"></path><path d="M23.55 0 C89.99 1.42, 157.52 2.58, 272.28 0 M23.55 0 C91.13 0.45, 157.61 0.64, 272.28 0 M272.28 0 C288.06 0.63, 295.98 8.53, 295.83 23.55 M272.28 0 C287.89 1.22, 295.84 9.91, 295.83 23.55 M295.83 23.55 C294.44 40.13, 295.19 53.99, 295.83 70.64 M295.83 23.55 C296.49 34.41, 295.73 48.06, 295.83 70.64 M295.83 70.64 C294.27 84.52, 287.55 93.55, 272.28 94.18 M295.83 70.64 C294.73 86.9, 288.76 94.45, 272.28 94.18 M272.28 94.18 C172.39 95.43, 74.18 96.08, 23.55 94.18 M272.28 94.18 C214.77 95.54, 156.13 95.68, 23.55 94.18 M23.55 94.18 C6.87 94.11, 1.01 87.99, 0 70.64 M23.55 94.18 C8.78 95.79, -0.74 88.11, 0 70.64 M0 70.64 C0.86 60.12, -0.91 45.86, 0 23.55 M0 70.64 C0.66 52.85, 0.43 36.15, 0 23.55 M0 23.55 C0.17 6.14, 8.2 -0.47, 23.55 0 M0 23.55 C2.22 9.03, 6.6 -0.09, 23.55 0" stroke="#1e1e1e" stroke-width="2" fill="none"></path></g><g transform="translate(85.17654138932852 243.51530429187892) rotate(0 92.09988403320312 12.5)"><text x="92.09988403320312" y="0" font-family="Virgil, Segoe UI Emoji" font-size="20px" fill="#1e1e1e" text-anchor="middle" style="white-space: pre;" direction="ltr" dominant-baseline="text-before-edge">notify-user-verified</text></g><g stroke-linecap="round" transform="translate(30.70635502378923 98.12297669002487) rotate(0 147.9148858982963 47.09068879156939)"><path d="M23.55 0 C82.89 -2.62, 141.45 -0.06, 272.28 0 C287.16 3.5, 294.16 9.53, 295.83 23.55 C296.77 30.02, 297.53 40.9, 295.83 70.64 C296.74 84.78, 285.28 94.39, 272.28 94.18 C176.23 93.95, 72.07 92.77, 23.55 94.18 C6.29 95.41, -3.46 88.55, 0 70.64 C3.14 51.8, -0.94 37.88, 0 23.55 C-3.28 9.7, 5.86 -3.12, 23.55 0" stroke="none" stroke-width="0" fill="#a5d8ff"></path><path d="M23.55 0 C112.23 -0.24, 200.7 -0.02, 272.28 0 M23.55 0 C84.42 -0.03, 144.62 -0.51, 272.28 0 M272.28 0 C286.63 -1.6, 294.78 6.7, 295.83 23.55 M272.28 0 C289.93 0.47, 297.41 8.47, 295.83 23.55 M295.83 23.55 C295.29 34.54, 297.9 48.5, 295.83 70.64 M295.83 23.55 C296.03 38.26, 295.88 51.98, 295.83 70.64 M295.83 70.64 C296.26 86.76, 289.85 95.07, 272.28 94.18 M295.83 70.64 C295.27 87.05, 289.72 93.19, 272.28 94.18 M272.28 94.18 C174.5 93.21, 77.92 93.21, 23.55 94.18 M272.28 94.18 C178.11 94.99, 84.1 94.72, 23.55 94.18 M23.55 94.18 C7.8 93.87, -1.36 85.89, 0 70.64 M23.55 94.18 C6.44 92.62, -0.92 84.47, 0 70.64 M0 70.64 C-1.15 52.44, -0.79 33.05, 0 23.55 M0 70.64 C-0.02 55.66, 0.8 37.88, 0 23.55 M0 23.55 C0.53 7.53, 7.02 0.19, 23.55 0 M0 23.55 C1.89 6.61, 8.5 1.35, 23.55 0" stroke="#1e1e1e" stroke-width="2" fill="none"></path></g><g transform="translate(62.46137458907771 132.71366548159426) rotate(0 116.15986633300781 12.5)"><text x="116.15986633300781" y="0" font-family="Virgil, Segoe UI Emoji" font-size="20px" fill="#1e1e1e" text-anchor="middle" style="white-space: pre;" direction="ltr" dominant-baseline="text-before-edge">notify-request-passport</text></g><g stroke-linecap="round" transform="translate(28.879188464752588 324.0019425098019) rotate(0 147.9148858982963 47.09068879156939)"><path d="M23.55 0 C87.76 -3.36, 151.67 0.68, 272.28 0 C284.82 -1.56, 293.01 10.64, 295.83 23.55 C297.57 42.05, 296.03 51.6, 295.83 70.64 C297.16 88.61, 287.69 92.53, 272.28 94.18 C201.27 96.23, 128.86 94.61, 23.55 94.18 C9.9 95.27, 1.64 88.28, 0 70.64 C1.75 49.43, -1.82 34.13, 0 23.55 C3.32 10.16, 6.98 -0.19, 23.55 0" stroke="none" stroke-width="0" fill="#a5d8ff"></path><path d="M23.55 0 C93.58 0.88, 162.76 -1.52, 272.28 0 M23.55 0 C117.35 1.48, 212.47 2.01, 272.28 0 M272.28 0 C288.61 -1.47, 295.32 7.89, 295.83 23.55 M272.28 0 C286.37 -0.25, 297 8.75, 295.83 23.55 M295.83 23.55 C294.68 34.52, 294.01 43.31, 295.83 70.64 M295.83 23.55 C295.19 39.16, 296.23 53.74, 295.83 70.64 M295.83 70.64 C297.51 87.4, 289.68 93.89, 272.28 94.18 M295.83 70.64 C293.84 85.88, 287.21 92.51, 272.28 94.18 M272.28 94.18 C192.96 94.02, 111.58 94.75, 23.55 94.18 M272.28 94.18 C218.91 95.11, 164.14 94.8, 23.55 94.18 M23.55 94.18 C7.69 93.88, -0.35 87.81, 0 70.64 M23.55 94.18 C7.29 95.96, 1.55 86.79, 0 70.64 M0 70.64 C0.83 58.41, -0.47 41.42, 0 23.55 M0 70.64 C-0.97 54.51, -1.09 39.86, 0 23.55 M0 23.55 C0.27 8.27, 6.18 -0.06, 23.55 0 M0 23.55 C0.98 5.67, 6.44 0.04, 23.55 0" stroke="#1e1e1e" stroke-width="2" fill="none"></path></g><g transform="translate(79.74418575220903 358.5926313013713) rotate(0 97.04988861083984 12.5)"><text x="97.04988861083984" y="0" font-family="Virgil, Segoe UI Emoji" font-size="20px" fill="#1e1e1e" text-anchor="middle" style="white-space: pre;" direction="ltr" dominant-baseline="text-before-edge">notify-user-rejected</text></g><g stroke-linecap="round" transform="translate(28.879188464752588 432.48622018111496) rotate(0 147.9148858982963 47.09068879156939)"><path d="M23.55 0 C92.16 2.99, 158.89 3.49, 272.28 0 C289.2 -2.35, 298.94 10.01, 295.83 23.55 C292.81 40.41, 295.92 53.69, 295.83 70.64 C294.1 87.13, 290.5 92.11, 272.28 94.18 C208.56 95.1, 150.57 95.6, 23.55 94.18 C10.67 93.71, -3.34 82.99, 0 70.64 C-4.05 54.44, -1.54 39.94, 0 23.55 C-1 9.95, 7.5 2.71, 23.55 0" stroke="none" stroke-width="0" fill="#a5d8ff"></path><path d="M23.55 0 C81.91 1.17, 142.94 -0.65, 272.28 0 M23.55 0 C116.09 1.14, 209.97 1.96, 272.28 0 M272.28 0 C287.88 1.24, 296.82 9.71, 295.83 23.55 M272.28 0 C288.14 -1.44, 296.68 9.3, 295.83 23.55 M295.83 23.55 C295.27 38.52, 295.26 50.89, 295.83 70.64 M295.83 23.55 C295.84 34.24, 296.08 44.78, 295.83 70.64 M295.83 70.64 C296.27 85.55, 289.06 92.24, 272.28 94.18 M295.83 70.64 C294.78 85.65, 290.1 95.66, 272.28 94.18 M272.28 94.18 C204.46 94.41, 136.13 93.82, 23.55 94.18 M272.28 94.18 C193.16 95.78, 114.54 95.81, 23.55 94.18 M23.55 94.18 C8.1 94.75, -1.18 85.64, 0 70.64 M23.55 94.18 C9 94.27, 1.34 85.83, 0 70.64 M0 70.64 C0.49 56.19, 0.91 44.43, 0 23.55 M0 70.64 C0.09 58.8, -0.46 48.97, 0 23.55 M0 23.55 C-1.33 7.44, 7.81 -1.08, 23.55 0 M0 23.55 C1.91 8.35, 5.84 -0.69, 23.55 0" stroke="#1e1e1e" stroke-width="2" fill="none"></path></g><g transform="translate(54.34419948511919 467.07690897268435) rotate(0 122.44987487792969 12.5)"><text x="122.44987487792969" y="0" font-family="Virgil, Segoe UI Emoji" font-size="20px" fill="#1e1e1e" text-anchor="middle" style="white-space: pre;" direction="ltr" dominant-baseline="text-before-edge">notify-manual-verification</text></g></svg>