<svg version="1.1" xmlns="http://www.w3.org/2000/svg" viewBox="0 0 3253.0943603907117 1021.1637491917438" width="6506.188720781423" height="2042.3274983834876">
  <!-- svg-source:excalidraw -->
  
  <defs>
    <style class="style-fonts">
      @font-face {
        font-family: "Virgil";
        src: url("https://excalidraw.com/Virgil.woff2");
      }
      @font-face {
        font-family: "Cascadia";
        src: url("https://excalidraw.com/Cascadia.woff2");
      }
      @font-face {
        font-family: "Assistant";
        src: url("https://app.excalidraw.com//dist/excalidraw-assets/Assistant-Regular.woff2");
      }
    </style>
    
  </defs>
  <rect x="0" y="0" width="3253.0943603907117" height="1021.1637491917438" fill="#ffffff"></rect><g stroke-linecap="round" transform="translate(10 10) rotate(0 1616.5471801953558 500.5818745958719)"><path d="M32 0 C979.12 -6.27, 1926.14 -6.84, 3201.09 0 M3201.09 0 C3221.45 0.75, 3234.76 8.67, 3233.09 32 M3233.09 32 C3229.75 242.06, 3230.25 452.95, 3233.09 969.16 M3233.09 969.16 C3234.38 989.33, 3221.9 1003.09, 3201.09 1001.16 M3201.09 1001.16 C1984 990.11, 767.69 990.38, 32 1001.16 M32 1001.16 C9.57 999.86, -1.95 991.21, 0 969.16 M0 969.16 C3.46 644.59, 2.47 321.86, 0 32 M0 32 C-0.23 11.59, 12.06 -1.78, 32 0" stroke="#1e1e1e" stroke-width="2.5" fill="none" stroke-dasharray="8 10"></path></g><g transform="translate(1572.4672012524848 15) rotate(0 54.079978942871094 25)"><text x="54.079978942871094" y="0" font-family="Virgil, Segoe UI Emoji" font-size="20px" fill="#1e1e1e" text-anchor="middle" style="white-space: pre;" direction="ltr" dominant-baseline="text-before-edge">WORKFLOW</text><text x="54.079978942871094" y="25" font-family="Virgil, Segoe UI Emoji" font-size="20px" fill="#1e1e1e" text-anchor="middle" style="white-space: pre;" direction="ltr" dominant-baseline="text-before-edge">kyc</text></g><g stroke-linecap="round" transform="translate(293.09858358569363 237.96181739301846) rotate(0 51 50)"><path d="M102 50 C102 52.18, 101.85 54.37, 101.56 56.53 C101.27 58.68, 100.84 60.84, 100.26 62.94 C99.69 65.04, 98.97 67.12, 98.12 69.13 C97.27 71.14, 96.28 73.12, 95.17 75 C94.06 76.88, 92.81 78.71, 91.46 80.44 C90.11 82.16, 88.63 83.82, 87.06 85.36 C85.49 86.89, 83.81 88.34, 82.05 89.67 C80.29 90.99, 78.42 92.21, 76.5 93.3 C74.58 94.39, 72.57 95.36, 70.52 96.19 C68.47 97.03, 66.34 97.73, 64.2 98.3 C62.06 98.86, 59.86 99.29, 57.66 99.57 C55.46 99.86, 53.22 100, 51 100 C48.78 100, 46.54 99.86, 44.34 99.57 C42.14 99.29, 39.94 98.86, 37.8 98.3 C35.66 97.73, 33.53 97.03, 31.48 96.19 C29.43 95.36, 27.42 94.39, 25.5 93.3 C23.58 92.21, 21.71 90.99, 19.95 89.67 C18.19 88.34, 16.51 86.89, 14.94 85.36 C13.37 83.82, 11.89 82.16, 10.54 80.44 C9.19 78.71, 7.94 76.88, 6.83 75 C5.72 73.12, 4.73 71.14, 3.88 69.13 C3.03 67.12, 2.31 65.04, 1.74 62.94 C1.16 60.84, 0.73 58.68, 0.44 56.53 C0.15 54.37, 0 52.18, 0 50 C0 47.82, 0.15 45.63, 0.44 43.47 C0.73 41.32, 1.16 39.16, 1.74 37.06 C2.31 34.96, 3.03 32.88, 3.88 30.87 C4.73 28.86, 5.72 26.88, 6.83 25 C7.94 23.12, 9.19 21.29, 10.54 19.56 C11.89 17.84, 13.37 16.18, 14.94 14.64 C16.51 13.11, 18.19 11.66, 19.95 10.33 C21.71 9.01, 23.58 7.79, 25.5 6.7 C27.42 5.61, 29.43 4.64, 31.48 3.81 C33.53 2.97, 35.66 2.27, 37.8 1.7 C39.94 1.14, 42.14 0.71, 44.34 0.43 C46.54 0.14, 48.78 0, 51 0 C53.22 0, 55.46 0.14, 57.66 0.43 C59.86 0.71, 62.06 1.14, 64.2 1.7 C66.34 2.27, 68.47 2.97, 70.52 3.81 C72.57 4.64, 74.58 5.61, 76.5 6.7 C78.42 7.79, 80.29 9.01, 82.05 10.33 C83.81 11.66, 85.49 13.11, 87.06 14.64 C88.63 16.18, 90.11 17.84, 91.46 19.56 C92.81 21.29, 94.06 23.12, 95.17 25 C96.28 26.88, 97.27 28.86, 98.12 30.87 C98.97 32.88, 99.69 34.96, 100.26 37.06 C100.84 39.16, 101.27 41.32, 101.56 43.47 C101.85 45.63, 101.93 48.91, 102 50 C102.07 51.09, 102.07 48.91, 102 50" stroke="none" stroke-width="0" fill="#b2f2bb"></path><path d="M102 50 C102 52.18, 101.85 54.37, 101.56 56.53 C101.27 58.68, 100.84 60.84, 100.26 62.94 C99.69 65.04, 98.97 67.12, 98.12 69.13 C97.27 71.14, 96.28 73.12, 95.17 75 C94.06 76.88, 92.81 78.71, 91.46 80.44 C90.11 82.16, 88.63 83.82, 87.06 85.36 C85.49 86.89, 83.81 88.34, 82.05 89.67 C80.29 90.99, 78.42 92.21, 76.5 93.3 C74.58 94.39, 72.57 95.36, 70.52 96.19 C68.47 97.03, 66.34 97.73, 64.2 98.3 C62.06 98.86, 59.86 99.29, 57.66 99.57 C55.46 99.86, 53.22 100, 51 100 C48.78 100, 46.54 99.86, 44.34 99.57 C42.14 99.29, 39.94 98.86, 37.8 98.3 C35.66 97.73, 33.53 97.03, 31.48 96.19 C29.43 95.36, 27.42 94.39, 25.5 93.3 C23.58 92.21, 21.71 90.99, 19.95 89.67 C18.19 88.34, 16.51 86.89, 14.94 85.36 C13.37 83.82, 11.89 82.16, 10.54 80.44 C9.19 78.71, 7.94 76.88, 6.83 75 C5.72 73.12, 4.73 71.14, 3.88 69.13 C3.03 67.12, 2.31 65.04, 1.74 62.94 C1.16 60.84, 0.73 58.68, 0.44 56.53 C0.15 54.37, 0 52.18, 0 50 C0 47.82, 0.15 45.63, 0.44 43.47 C0.73 41.32, 1.16 39.16, 1.74 37.06 C2.31 34.96, 3.03 32.88, 3.88 30.87 C4.73 28.86, 5.72 26.88, 6.83 25 C7.94 23.12, 9.19 21.29, 10.54 19.56 C11.89 17.84, 13.37 16.18, 14.94 14.64 C16.51 13.11, 18.19 11.66, 19.95 10.33 C21.71 9.01, 23.58 7.79, 25.5 6.7 C27.42 5.61, 29.43 4.64, 31.48 3.81 C33.53 2.97, 35.66 2.27, 37.8 1.7 C39.94 1.14, 42.14 0.71, 44.34 0.43 C46.54 0.14, 48.78 0, 51 0 C53.22 0, 55.46 0.14, 57.66 0.43 C59.86 0.71, 62.06 1.14, 64.2 1.7 C66.34 2.27, 68.47 2.97, 70.52 3.81 C72.57 4.64, 74.58 5.61, 76.5 6.7 C78.42 7.79, 80.29 9.01, 82.05 10.33 C83.81 11.66, 85.49 13.11, 87.06 14.64 C88.63 16.18, 90.11 17.84, 91.46 19.56 C92.81 21.29, 94.06 23.12, 95.17 25 C96.28 26.88, 97.27 28.86, 98.12 30.87 C98.97 32.88, 99.69 34.96, 100.26 37.06 C100.84 39.16, 101.27 41.32, 101.56 43.47 C101.85 45.63, 101.93 48.91, 102 50 C102.07 51.09, 102.07 48.91, 102 50" stroke="#1e1e1e" stroke-width="2" fill="none"></path></g><g stroke-linecap="round" transform="translate(515.939669015643 211.7060478695239) rotate(0 124.48550245486183 71)"><path d="M32 0 C75.35 0, 118.71 0, 216.97 0 C238.3 0, 248.97 10.67, 248.97 32 C248.97 59.69, 248.97 87.37, 248.97 110 C248.97 131.33, 238.3 142, 216.97 142 C152.18 142, 87.39 142, 32 142 C10.67 142, 0 131.33, 0 110 C0 80.13, 0 50.25, 0 32 C0 10.67, 10.67 0, 32 0" stroke="none" stroke-width="0" fill="#a5d8ff"></path><path d="M32 0 C80.79 0, 129.58 0, 216.97 0 M32 0 C100.61 0, 169.21 0, 216.97 0 M216.97 0 C238.3 0, 248.97 10.67, 248.97 32 M216.97 0 C238.3 0, 248.97 10.67, 248.97 32 M248.97 32 C248.97 53.63, 248.97 75.26, 248.97 110 M248.97 32 C248.97 51.43, 248.97 70.85, 248.97 110 M248.97 110 C248.97 131.33, 238.3 142, 216.97 142 M248.97 110 C248.97 131.33, 238.3 142, 216.97 142 M216.97 142 C175.61 142, 134.24 142, 32 142 M216.97 142 C156.53 142, 96.09 142, 32 142 M32 142 C10.67 142, 0 131.33, 0 110 M32 142 C10.67 142, 0 131.33, 0 110 M0 110 C0 91.71, 0 73.43, 0 32 M0 110 C0 91.24, 0 72.47, 0 32 M0 32 C0 10.67, 10.67 0, 32 0 M0 32 C0 10.67, 10.67 0, 32 0" stroke="#1e1e1e" stroke-width="2" fill="none"></path></g><g transform="translate(524.265305137497 270.2060478695239) rotate(0 116.15986633300781 12.5)"><text x="116.15986633300781" y="0" font-family="Virgil, Segoe UI Emoji" font-size="20px" fill="#1e1e1e" text-anchor="middle" style="white-space: pre;" direction="ltr" dominant-baseline="text-before-edge">notify-request-passport</text></g><g stroke-linecap="round" transform="translate(866.9106739253666 198.89304731040647) rotate(0 81.5 78)"><path d="M163 78 C163 80.72, 162.85 83.45, 162.55 86.15 C162.26 88.86, 161.81 91.56, 161.22 94.22 C160.63 96.88, 159.89 99.52, 159.01 102.1 C158.13 104.69, 157.11 107.24, 155.95 109.73 C154.8 112.21, 153.5 114.65, 152.08 117 C150.66 119.35, 149.1 121.65, 147.43 123.85 C145.77 126.05, 143.97 128.17, 142.07 130.19 C140.17 132.21, 138.14 134.15, 136.03 135.97 C133.92 137.78, 131.7 139.51, 129.4 141.1 C127.11 142.7, 124.71 144.19, 122.25 145.55 C119.79 146.91, 117.24 148.15, 114.65 149.26 C112.05 150.36, 109.39 151.34, 106.68 152.18 C103.98 153.02, 101.22 153.73, 98.44 154.3 C95.67 154.86, 92.84 155.29, 90.02 155.57 C87.19 155.86, 84.34 156, 81.5 156 C78.66 156, 75.81 155.86, 72.98 155.57 C70.16 155.29, 67.33 154.86, 64.56 154.3 C61.78 153.73, 59.02 153.02, 56.32 152.18 C53.61 151.34, 50.95 150.36, 48.35 149.26 C45.76 148.15, 43.21 146.91, 40.75 145.55 C38.29 144.19, 35.89 142.7, 33.6 141.1 C31.3 139.51, 29.08 137.78, 26.97 135.97 C24.86 134.15, 22.83 132.21, 20.93 130.19 C19.03 128.17, 17.23 126.05, 15.57 123.85 C13.9 121.65, 12.34 119.35, 10.92 117 C9.5 114.65, 8.2 112.21, 7.05 109.73 C5.89 107.24, 4.87 104.69, 3.99 102.1 C3.11 99.52, 2.37 96.88, 1.78 94.22 C1.19 91.56, 0.74 88.86, 0.45 86.15 C0.15 83.45, 0 80.72, 0 78 C0 75.28, 0.15 72.55, 0.45 69.85 C0.74 67.14, 1.19 64.44, 1.78 61.78 C2.37 59.12, 3.11 56.48, 3.99 53.9 C4.87 51.31, 5.89 48.76, 7.05 46.27 C8.2 43.79, 9.5 41.35, 10.92 39 C12.34 36.65, 13.9 34.35, 15.57 32.15 C17.23 29.95, 19.03 27.83, 20.93 25.81 C22.83 23.79, 24.86 21.85, 26.97 20.03 C29.08 18.22, 31.3 16.49, 33.6 14.9 C35.89 13.3, 38.29 11.81, 40.75 10.45 C43.21 9.09, 45.76 7.85, 48.35 6.74 C50.95 5.64, 53.61 4.66, 56.32 3.82 C59.02 2.98, 61.78 2.27, 64.56 1.7 C67.33 1.14, 70.16 0.71, 72.98 0.43 C75.81 0.14, 78.66 0, 81.5 0 C84.34 0, 87.19 0.14, 90.02 0.43 C92.84 0.71, 95.67 1.14, 98.44 1.7 C101.22 2.27, 103.98 2.98, 106.68 3.82 C109.39 4.66, 112.05 5.64, 114.65 6.74 C117.24 7.85, 119.79 9.09, 122.25 10.45 C124.71 11.81, 127.11 13.3, 129.4 14.9 C131.7 16.49, 133.92 18.22, 136.03 20.03 C138.14 21.85, 140.17 23.79, 142.07 25.81 C143.97 27.83, 145.77 29.95, 147.43 32.15 C149.1 34.35, 150.66 36.65, 152.08 39 C153.5 41.35, 154.8 43.79, 155.95 46.27 C157.11 48.76, 158.13 51.31, 159.01 53.9 C159.89 56.48, 160.63 59.12, 161.22 61.78 C161.81 64.44, 162.26 67.14, 162.55 69.85 C162.85 72.55, 162.93 76.64, 163 78 C163.07 79.36, 163.07 76.64, 163 78" stroke="none" stroke-width="0" fill="#ffec99"></path><path d="M163 78 C163 80.72, 162.85 83.45, 162.55 86.15 C162.26 88.86, 161.81 91.56, 161.22 94.22 C160.63 96.88, 159.89 99.52, 159.01 102.1 C158.13 104.69, 157.11 107.24, 155.95 109.73 C154.8 112.21, 153.5 114.65, 152.08 117 C150.66 119.35, 149.1 121.65, 147.43 123.85 C145.77 126.05, 143.97 128.17, 142.07 130.19 C140.17 132.21, 138.14 134.15, 136.03 135.97 C133.92 137.78, 131.7 139.51, 129.4 141.1 C127.11 142.7, 124.71 144.19, 122.25 145.55 C119.79 146.91, 117.24 148.15, 114.65 149.26 C112.05 150.36, 109.39 151.34, 106.68 152.18 C103.98 153.02, 101.22 153.73, 98.44 154.3 C95.67 154.86, 92.84 155.29, 90.02 155.57 C87.19 155.86, 84.34 156, 81.5 156 C78.66 156, 75.81 155.86, 72.98 155.57 C70.16 155.29, 67.33 154.86, 64.56 154.3 C61.78 153.73, 59.02 153.02, 56.32 152.18 C53.61 151.34, 50.95 150.36, 48.35 149.26 C45.76 148.15, 43.21 146.91, 40.75 145.55 C38.29 144.19, 35.89 142.7, 33.6 141.1 C31.3 139.51, 29.08 137.78, 26.97 135.97 C24.86 134.15, 22.83 132.21, 20.93 130.19 C19.03 128.17, 17.23 126.05, 15.57 123.85 C13.9 121.65, 12.34 119.35, 10.92 117 C9.5 114.65, 8.2 112.21, 7.05 109.73 C5.89 107.24, 4.87 104.69, 3.99 102.1 C3.11 99.52, 2.37 96.88, 1.78 94.22 C1.19 91.56, 0.74 88.86, 0.45 86.15 C0.15 83.45, 0 80.72, 0 78 C0 75.28, 0.15 72.55, 0.45 69.85 C0.74 67.14, 1.19 64.44, 1.78 61.78 C2.37 59.12, 3.11 56.48, 3.99 53.9 C4.87 51.31, 5.89 48.76, 7.05 46.27 C8.2 43.79, 9.5 41.35, 10.92 39 C12.34 36.65, 13.9 34.35, 15.57 32.15 C17.23 29.95, 19.03 27.83, 20.93 25.81 C22.83 23.79, 24.86 21.85, 26.97 20.03 C29.08 18.22, 31.3 16.49, 33.6 14.9 C35.89 13.3, 38.29 11.81, 40.75 10.45 C43.21 9.09, 45.76 7.85, 48.35 6.74 C50.95 5.64, 53.61 4.66, 56.32 3.82 C59.02 2.98, 61.78 2.27, 64.56 1.7 C67.33 1.14, 70.16 0.71, 72.98 0.43 C75.81 0.14, 78.66 0, 81.5 0 C84.34 0, 87.19 0.14, 90.02 0.43 C92.84 0.71, 95.67 1.14, 98.44 1.7 C101.22 2.27, 103.98 2.98, 106.68 3.82 C109.39 4.66, 112.05 5.64, 114.65 6.74 C117.24 7.85, 119.79 9.09, 122.25 10.45 C124.71 11.81, 127.11 13.3, 129.4 14.9 C131.7 16.49, 133.92 18.22, 136.03 20.03 C138.14 21.85, 140.17 23.79, 142.07 25.81 C143.97 27.83, 145.77 29.95, 147.43 32.15 C149.1 34.35, 150.66 36.65, 152.08 39 C153.5 41.35, 154.8 43.79, 155.95 46.27 C157.11 48.76, 158.13 51.31, 159.01 53.9 C159.89 56.48, 160.63 59.12, 161.22 61.78 C161.81 64.44, 162.26 67.14, 162.55 69.85 C162.85 72.55, 162.93 76.64, 163 78 C163.07 79.36, 163.07 76.64, 163 78" stroke="#1e1e1e" stroke-width="4.5" fill="none" stroke-dasharray="8 12"></path></g><g transform="translate(901.1115264954794 251.73871837785555) rotate(0 47.169944763183594 25)"><text x="47.169944763183594" y="0" font-family="Virgil, Segoe UI Emoji" font-size="20px" fill="#1e1e1e" text-anchor="middle" style="white-space: pre;" direction="ltr" dominant-baseline="text-before-edge">passport-</text><text x="47.169944763183594" y="25" font-family="Virgil, Segoe UI Emoji" font-size="20px" fill="#1e1e1e" text-anchor="middle" style="white-space: pre;" direction="ltr" dominant-baseline="text-before-edge">submitted</text></g><g stroke-linecap="round" transform="translate(1157.9106739253666 205.89304731040647) rotate(0 107 71)"><path d="M32 0 C62.29 0, 92.58 0, 182 0 C203.33 0, 214 10.67, 214 32 C214 51.7, 214 71.41, 214 110 C214 131.33, 203.33 142, 182 142 C135.42 142, 88.84 142, 32 142 C10.67 142, 0 131.33, 0 110 C0 87.35, 0 64.71, 0 32 C0 10.67, 10.67 0, 32 0" stroke="none" stroke-width="0" fill="#a5d8ff"></path><path d="M32 0 C63.47 0, 94.94 0, 182 0 M32 0 C70.56 0, 109.13 0, 182 0 M182 0 C203.33 0, 214 10.67, 214 32 M182 0 C203.33 0, 214 10.67, 214 32 M214 32 C214 47.81, 214 63.63, 214 110 M214 32 C214 51.42, 214 70.83, 214 110 M214 110 C214 131.33, 203.33 142, 182 142 M214 110 C214 131.33, 203.33 142, 182 142 M182 142 C135.02 142, 88.04 142, 32 142 M182 142 C128.22 142, 74.45 142, 32 142 M32 142 C10.67 142, 0 131.33, 0 110 M32 142 C10.67 142, 0 131.33, 0 110 M0 110 C0 83.19, 0 56.39, 0 32 M0 110 C0 85.01, 0 60.02, 0 32 M0 32 C0 10.67, 10.67 0, 32 0 M0 32 C0 10.67, 10.67 0, 32 0" stroke="#1e1e1e" stroke-width="2" fill="none"></path></g><g transform="translate(1181.800772497144 264.3930473104065) rotate(0 83.10990142822266 12.5)"><text x="83.10990142822266" y="0" font-family="Virgil, Segoe UI Emoji" font-size="20px" fill="#1e1e1e" text-anchor="middle" style="white-space: pre;" direction="ltr" dominant-baseline="text-before-edge">process-passport</text></g><g stroke-linecap="round" transform="translate(1504.0103095264103 204.89304731040647) rotate(0 81 71)"><path d="M102.5 18 C113.6 28.24, 124.69 38.48, 141.5 54 C162 72, 162 72, 141.5 90 C129.62 100.36, 117.73 110.72, 102.5 124 C82 142, 82 142, 61.5 124 C45.26 110.53, 29.02 97.07, 20.5 90 C0 72, 0 72, 20.5 54 C29.71 45.92, 38.91 37.83, 61.5 18 C82 0, 82 0, 102.5 18" stroke="none" stroke-width="0" fill="#ffec99"></path><path d="M102.5 18 C116.86 31.25, 131.22 44.51, 141.5 54 M102.5 18 C112.09 26.86, 121.69 35.71, 141.5 54 M141.5 54 C162 72, 162 72, 141.5 90 M141.5 54 C162 72, 162 72, 141.5 90 M141.5 90 C130.4 99.68, 119.29 109.36, 102.5 124 M141.5 90 C127.46 102.24, 113.43 114.47, 102.5 124 M102.5 124 C82 142, 82 142, 61.5 124 M102.5 124 C82 142, 82 142, 61.5 124 M61.5 124 C50.43 114.82, 39.36 105.64, 20.5 90 M61.5 124 C53.25 117.16, 45 110.32, 20.5 90 M20.5 90 C0 72, 0 72, 20.5 54 M20.5 90 C0 72, 0 72, 20.5 54 M20.5 54 C35.59 40.75, 50.68 27.5, 61.5 18 M20.5 54 C34.73 41.5, 48.97 29.01, 61.5 18 M61.5 18 C82 0, 82 0, 102.5 18 M61.5 18 C82 0, 82 0, 102.5 18" stroke="#1e1e1e" stroke-width="2" fill="none"></path></g><g transform="translate(1558.0003302783634 263.3930473104065) rotate(0 27.009979248046875 12.5)"><text x="27.009979248046875" y="0" font-family="Virgil, Segoe UI Emoji" font-size="20px" fill="#1e1e1e" text-anchor="middle" style="white-space: pre;" direction="ltr" dominant-baseline="text-before-edge">Valid?</text></g><g stroke-linecap="round" transform="translate(2198.5380997018146 210.94996614327283) rotate(0 107 71)"><path d="M32 0 C79.41 0, 126.82 0, 182 0 C203.33 0, 214 10.67, 214 32 C214 49.42, 214 66.84, 214 110 C214 131.33, 203.33 142, 182 142 C149.72 142, 117.45 142, 32 142 C10.67 142, 0 131.33, 0 110 C0 88.16, 0 66.33, 0 32 C0 10.67, 10.67 0, 32 0" stroke="none" stroke-width="0" fill="#a5d8ff"></path><path d="M32 0 C83.84 0, 135.68 0, 182 0 M32 0 C81.78 0, 131.56 0, 182 0 M182 0 C203.33 0, 214 10.67, 214 32 M182 0 C203.33 0, 214 10.67, 214 32 M214 32 C214 57.11, 214 82.23, 214 110 M214 32 C214 53.92, 214 75.84, 214 110 M214 110 C214 131.33, 203.33 142, 182 142 M214 110 C214 131.33, 203.33 142, 182 142 M182 142 C133.39 142, 84.77 142, 32 142 M182 142 C126.86 142, 71.71 142, 32 142 M32 142 C10.67 142, 0 131.33, 0 110 M32 142 C10.67 142, 0 131.33, 0 110 M0 110 C0 80.74, 0 51.48, 0 32 M0 110 C0 88.61, 0 67.22, 0 32 M0 32 C0 10.67, 10.67 0, 32 0 M0 32 C0 10.67, 10.67 0, 32 0" stroke="#1e1e1e" stroke-width="2" fill="none"></path></g><g transform="translate(2213.4382156686115 269.44996614327283) rotate(0 92.09988403320312 12.5)"><text x="92.09988403320312" y="0" font-family="Virgil, Segoe UI Emoji" font-size="20px" fill="#1e1e1e" text-anchor="middle" style="white-space: pre;" direction="ltr" dominant-baseline="text-before-edge">notify-user-verified</text></g><g stroke-linecap="round" transform="translate(1449.580808311139 465.52814961996137) rotate(0 138.69860804672976 71)"><path d="M32 0 C86.61 0, 141.21 0, 245.4 0 C266.73 0, 277.4 10.67, 277.4 32 C277.4 62.01, 277.4 92.03, 277.4 110 C277.4 131.33, 266.73 142, 245.4 142 C202.62 142, 159.84 142, 32 142 C10.67 142, 0 131.33, 0 110 C0 84.36, 0 58.71, 0 32 C0 10.67, 10.67 0, 32 0" stroke="none" stroke-width="0" fill="#a5d8ff"></path><path d="M32 0 C83.09 0, 134.19 0, 245.4 0 M32 0 C100.66 0, 169.31 0, 245.4 0 M245.4 0 C266.73 0, 277.4 10.67, 277.4 32 M245.4 0 C266.73 0, 277.4 10.67, 277.4 32 M277.4 32 C277.4 58.31, 277.4 84.63, 277.4 110 M277.4 32 C277.4 49.3, 277.4 66.6, 277.4 110 M277.4 110 C277.4 131.33, 266.73 142, 245.4 142 M277.4 110 C277.4 131.33, 266.73 142, 245.4 142 M245.4 142 C188 142, 130.6 142, 32 142 M245.4 142 C194.47 142, 143.55 142, 32 142 M32 142 C10.67 142, 0 131.33, 0 110 M32 142 C10.67 142, 0 131.33, 0 110 M0 110 C0 83.78, 0 57.55, 0 32 M0 110 C0 94.29, 0 78.58, 0 32 M0 32 C0 10.67, 10.67 0, 32 0 M0 32 C0 10.67, 10.67 0, 32 0" stroke="#1e1e1e" stroke-width="2" fill="none"></path></g><g transform="translate(1465.829541479939 524.0281496199614) rotate(0 122.44987487792969 12.5)"><text x="122.44987487792969" y="0" font-family="Virgil, Segoe UI Emoji" font-size="20px" fill="#1e1e1e" text-anchor="middle" style="white-space: pre;" direction="ltr" dominant-baseline="text-before-edge">notify-manual-verification</text></g><g stroke-linecap="round" transform="translate(2909.4370186378083 227.041476098565) rotate(0 51 50)"><path d="M102 50 C102 52.18, 101.85 54.37, 101.56 56.53 C101.27 58.68, 100.84 60.84, 100.26 62.94 C99.69 65.04, 98.97 67.12, 98.12 69.13 C97.27 71.14, 96.28 73.12, 95.17 75 C94.06 76.88, 92.81 78.71, 91.46 80.44 C90.11 82.16, 88.63 83.82, 87.06 85.36 C85.49 86.89, 83.81 88.34, 82.05 89.67 C80.29 90.99, 78.42 92.21, 76.5 93.3 C74.58 94.39, 72.57 95.36, 70.52 96.19 C68.47 97.03, 66.34 97.73, 64.2 98.3 C62.06 98.86, 59.86 99.29, 57.66 99.57 C55.46 99.86, 53.22 100, 51 100 C48.78 100, 46.54 99.86, 44.34 99.57 C42.14 99.29, 39.94 98.86, 37.8 98.3 C35.66 97.73, 33.53 97.03, 31.48 96.19 C29.43 95.36, 27.42 94.39, 25.5 93.3 C23.58 92.21, 21.71 90.99, 19.95 89.67 C18.19 88.34, 16.51 86.89, 14.94 85.36 C13.37 83.82, 11.89 82.16, 10.54 80.44 C9.19 78.71, 7.94 76.88, 6.83 75 C5.72 73.12, 4.73 71.14, 3.88 69.13 C3.03 67.12, 2.31 65.04, 1.74 62.94 C1.16 60.84, 0.73 58.68, 0.44 56.53 C0.15 54.37, 0 52.18, 0 50 C0 47.82, 0.15 45.63, 0.44 43.47 C0.73 41.32, 1.16 39.16, 1.74 37.06 C2.31 34.96, 3.03 32.88, 3.88 30.87 C4.73 28.86, 5.72 26.88, 6.83 25 C7.94 23.12, 9.19 21.29, 10.54 19.56 C11.89 17.84, 13.37 16.18, 14.94 14.64 C16.51 13.11, 18.19 11.66, 19.95 10.33 C21.71 9.01, 23.58 7.79, 25.5 6.7 C27.42 5.61, 29.43 4.64, 31.48 3.81 C33.53 2.97, 35.66 2.27, 37.8 1.7 C39.94 1.14, 42.14 0.71, 44.34 0.43 C46.54 0.14, 48.78 0, 51 0 C53.22 0, 55.46 0.14, 57.66 0.43 C59.86 0.71, 62.06 1.14, 64.2 1.7 C66.34 2.27, 68.47 2.97, 70.52 3.81 C72.57 4.64, 74.58 5.61, 76.5 6.7 C78.42 7.79, 80.29 9.01, 82.05 10.33 C83.81 11.66, 85.49 13.11, 87.06 14.64 C88.63 16.18, 90.11 17.84, 91.46 19.56 C92.81 21.29, 94.06 23.12, 95.17 25 C96.28 26.88, 97.27 28.86, 98.12 30.87 C98.97 32.88, 99.69 34.96, 100.26 37.06 C100.84 39.16, 101.27 41.32, 101.56 43.47 C101.85 45.63, 101.93 48.91, 102 50 C102.07 51.09, 102.07 48.91, 102 50" stroke="none" stroke-width="0" fill="#b2f2bb"></path><path d="M102 50 C102 52.18, 101.85 54.37, 101.56 56.53 C101.27 58.68, 100.84 60.84, 100.26 62.94 C99.69 65.04, 98.97 67.12, 98.12 69.13 C97.27 71.14, 96.28 73.12, 95.17 75 C94.06 76.88, 92.81 78.71, 91.46 80.44 C90.11 82.16, 88.63 83.82, 87.06 85.36 C85.49 86.89, 83.81 88.34, 82.05 89.67 C80.29 90.99, 78.42 92.21, 76.5 93.3 C74.58 94.39, 72.57 95.36, 70.52 96.19 C68.47 97.03, 66.34 97.73, 64.2 98.3 C62.06 98.86, 59.86 99.29, 57.66 99.57 C55.46 99.86, 53.22 100, 51 100 C48.78 100, 46.54 99.86, 44.34 99.57 C42.14 99.29, 39.94 98.86, 37.8 98.3 C35.66 97.73, 33.53 97.03, 31.48 96.19 C29.43 95.36, 27.42 94.39, 25.5 93.3 C23.58 92.21, 21.71 90.99, 19.95 89.67 C18.19 88.34, 16.51 86.89, 14.94 85.36 C13.37 83.82, 11.89 82.16, 10.54 80.44 C9.19 78.71, 7.94 76.88, 6.83 75 C5.72 73.12, 4.73 71.14, 3.88 69.13 C3.03 67.12, 2.31 65.04, 1.74 62.94 C1.16 60.84, 0.73 58.68, 0.44 56.53 C0.15 54.37, 0 52.18, 0 50 C0 47.82, 0.15 45.63, 0.44 43.47 C0.73 41.32, 1.16 39.16, 1.74 37.06 C2.31 34.96, 3.03 32.88, 3.88 30.87 C4.73 28.86, 5.72 26.88, 6.83 25 C7.94 23.12, 9.19 21.29, 10.54 19.56 C11.89 17.84, 13.37 16.18, 14.94 14.64 C16.51 13.11, 18.19 11.66, 19.95 10.33 C21.71 9.01, 23.58 7.79, 25.5 6.7 C27.42 5.61, 29.43 4.64, 31.48 3.81 C33.53 2.97, 35.66 2.27, 37.8 1.7 C39.94 1.14, 42.14 0.71, 44.34 0.43 C46.54 0.14, 48.78 0, 51 0 C53.22 0, 55.46 0.14, 57.66 0.43 C59.86 0.71, 62.06 1.14, 64.2 1.7 C66.34 2.27, 68.47 2.97, 70.52 3.81 C72.57 4.64, 74.58 5.61, 76.5 6.7 C78.42 7.79, 80.29 9.01, 82.05 10.33 C83.81 11.66, 85.49 13.11, 87.06 14.64 C88.63 16.18, 90.11 17.84, 91.46 19.56 C92.81 21.29, 94.06 23.12, 95.17 25 C96.28 26.88, 97.27 28.86, 98.12 30.87 C98.97 32.88, 99.69 34.96, 100.26 37.06 C100.84 39.16, 101.27 41.32, 101.56 43.47 C101.85 45.63, 101.93 48.91, 102 50 C102.07 51.09, 102.07 48.91, 102 50" stroke="#1e1e1e" stroke-width="4" fill="none"></path></g><g stroke-linecap="round" transform="translate(2609.764253148779 705.1238998391686) rotate(0 51 50)"><path d="M102 50 C102 52.18, 101.85 54.37, 101.56 56.53 C101.27 58.68, 100.84 60.84, 100.26 62.94 C99.69 65.04, 98.97 67.12, 98.12 69.13 C97.27 71.14, 96.28 73.12, 95.17 75 C94.06 76.88, 92.81 78.71, 91.46 80.44 C90.11 82.16, 88.63 83.82, 87.06 85.36 C85.49 86.89, 83.81 88.34, 82.05 89.67 C80.29 90.99, 78.42 92.21, 76.5 93.3 C74.58 94.39, 72.57 95.36, 70.52 96.19 C68.47 97.03, 66.34 97.73, 64.2 98.3 C62.06 98.86, 59.86 99.29, 57.66 99.57 C55.46 99.86, 53.22 100, 51 100 C48.78 100, 46.54 99.86, 44.34 99.57 C42.14 99.29, 39.94 98.86, 37.8 98.3 C35.66 97.73, 33.53 97.03, 31.48 96.19 C29.43 95.36, 27.42 94.39, 25.5 93.3 C23.58 92.21, 21.71 90.99, 19.95 89.67 C18.19 88.34, 16.51 86.89, 14.94 85.36 C13.37 83.82, 11.89 82.16, 10.54 80.44 C9.19 78.71, 7.94 76.88, 6.83 75 C5.72 73.12, 4.73 71.14, 3.88 69.13 C3.03 67.12, 2.31 65.04, 1.74 62.94 C1.16 60.84, 0.73 58.68, 0.44 56.53 C0.15 54.37, 0 52.18, 0 50 C0 47.82, 0.15 45.63, 0.44 43.47 C0.73 41.32, 1.16 39.16, 1.74 37.06 C2.31 34.96, 3.03 32.88, 3.88 30.87 C4.73 28.86, 5.72 26.88, 6.83 25 C7.94 23.12, 9.19 21.29, 10.54 19.56 C11.89 17.84, 13.37 16.18, 14.94 14.64 C16.51 13.11, 18.19 11.66, 19.95 10.33 C21.71 9.01, 23.58 7.79, 25.5 6.7 C27.42 5.61, 29.43 4.64, 31.48 3.81 C33.53 2.97, 35.66 2.27, 37.8 1.7 C39.94 1.14, 42.14 0.71, 44.34 0.43 C46.54 0.14, 48.78 0, 51 0 C53.22 0, 55.46 0.14, 57.66 0.43 C59.86 0.71, 62.06 1.14, 64.2 1.7 C66.34 2.27, 68.47 2.97, 70.52 3.81 C72.57 4.64, 74.58 5.61, 76.5 6.7 C78.42 7.79, 80.29 9.01, 82.05 10.33 C83.81 11.66, 85.49 13.11, 87.06 14.64 C88.63 16.18, 90.11 17.84, 91.46 19.56 C92.81 21.29, 94.06 23.12, 95.17 25 C96.28 26.88, 97.27 28.86, 98.12 30.87 C98.97 32.88, 99.69 34.96, 100.26 37.06 C100.84 39.16, 101.27 41.32, 101.56 43.47 C101.85 45.63, 101.93 48.91, 102 50 C102.07 51.09, 102.07 48.91, 102 50" stroke="none" stroke-width="0" fill="#ffc9c9"></path><path d="M102 50 C102 52.18, 101.85 54.37, 101.56 56.53 C101.27 58.68, 100.84 60.84, 100.26 62.94 C99.69 65.04, 98.97 67.12, 98.12 69.13 C97.27 71.14, 96.28 73.12, 95.17 75 C94.06 76.88, 92.81 78.71, 91.46 80.44 C90.11 82.16, 88.63 83.82, 87.06 85.36 C85.49 86.89, 83.81 88.34, 82.05 89.67 C80.29 90.99, 78.42 92.21, 76.5 93.3 C74.58 94.39, 72.57 95.36, 70.52 96.19 C68.47 97.03, 66.34 97.73, 64.2 98.3 C62.06 98.86, 59.86 99.29, 57.66 99.57 C55.46 99.86, 53.22 100, 51 100 C48.78 100, 46.54 99.86, 44.34 99.57 C42.14 99.29, 39.94 98.86, 37.8 98.3 C35.66 97.73, 33.53 97.03, 31.48 96.19 C29.43 95.36, 27.42 94.39, 25.5 93.3 C23.58 92.21, 21.71 90.99, 19.95 89.67 C18.19 88.34, 16.51 86.89, 14.94 85.36 C13.37 83.82, 11.89 82.16, 10.54 80.44 C9.19 78.71, 7.94 76.88, 6.83 75 C5.72 73.12, 4.73 71.14, 3.88 69.13 C3.03 67.12, 2.31 65.04, 1.74 62.94 C1.16 60.84, 0.73 58.68, 0.44 56.53 C0.15 54.37, 0 52.18, 0 50 C0 47.82, 0.15 45.63, 0.44 43.47 C0.73 41.32, 1.16 39.16, 1.74 37.06 C2.31 34.96, 3.03 32.88, 3.88 30.87 C4.73 28.86, 5.72 26.88, 6.83 25 C7.94 23.12, 9.19 21.29, 10.54 19.56 C11.89 17.84, 13.37 16.18, 14.94 14.64 C16.51 13.11, 18.19 11.66, 19.95 10.33 C21.71 9.01, 23.58 7.79, 25.5 6.7 C27.42 5.61, 29.43 4.64, 31.48 3.81 C33.53 2.97, 35.66 2.27, 37.8 1.7 C39.94 1.14, 42.14 0.71, 44.34 0.43 C46.54 0.14, 48.78 0, 51 0 C53.22 0, 55.46 0.14, 57.66 0.43 C59.86 0.71, 62.06 1.14, 64.2 1.7 C66.34 2.27, 68.47 2.97, 70.52 3.81 C72.57 4.64, 74.58 5.61, 76.5 6.7 C78.42 7.79, 80.29 9.01, 82.05 10.33 C83.81 11.66, 85.49 13.11, 87.06 14.64 C88.63 16.18, 90.11 17.84, 91.46 19.56 C92.81 21.29, 94.06 23.12, 95.17 25 C96.28 26.88, 97.27 28.86, 98.12 30.87 C98.97 32.88, 99.69 34.96, 100.26 37.06 C100.84 39.16, 101.27 41.32, 101.56 43.47 C101.85 45.63, 101.93 48.91, 102 50 C102.07 51.09, 102.07 48.91, 102 50" stroke="#1e1e1e" stroke-width="4" fill="none"></path></g><g stroke-linecap="round" transform="translate(1855.4735753083314 464.9849153135383) rotate(0 107 71)"><path d="M32 0 C68.16 0, 104.32 0, 182 0 C203.33 0, 214 10.67, 214 32 C214 50.5, 214 69, 214 110 C214 131.33, 203.33 142, 182 142 C135.54 142, 89.08 142, 32 142 C10.67 142, 0 131.33, 0 110 C0 91.22, 0 72.45, 0 32 C0 10.67, 10.67 0, 32 0" stroke="none" stroke-width="0" fill="#b2f2bb"></path><path d="M32 0 C63.56 0, 95.13 0, 182 0 M32 0 C88.68 0, 145.35 0, 182 0 M182 0 C203.33 0, 214 10.67, 214 32 M182 0 C203.33 0, 214 10.67, 214 32 M214 32 C214 59.73, 214 87.46, 214 110 M214 32 C214 51.24, 214 70.48, 214 110 M214 110 C214 131.33, 203.33 142, 182 142 M214 110 C214 131.33, 203.33 142, 182 142 M182 142 C128.3 142, 74.59 142, 32 142 M182 142 C125.87 142, 69.74 142, 32 142 M32 142 C10.67 142, 0 131.33, 0 110 M32 142 C10.67 142, 0 131.33, 0 110 M0 110 C0 93.48, 0 76.96, 0 32 M0 110 C0 91.19, 0 72.39, 0 32 M0 32 C0 10.67, 10.67 0, 32 0 M0 32 C0 10.67, 10.67 0, 32 0" stroke="#1e1e1e" stroke-width="2" fill="none"></path></g><g transform="translate(1871.7336613679017 523.4849153135383) rotate(0 90.73991394042969 12.5)"><text x="90.73991394042969" y="0" font-family="Virgil, Segoe UI Emoji" font-size="20px" fill="#1e1e1e" text-anchor="middle" style="white-space: pre;" direction="ltr" dominant-baseline="text-before-edge">manual-verification</text></g><g stroke-linecap="round" transform="translate(2198.1202667832904 693.4416860002061) rotate(0 107 71)"><path d="M32 0 C91.15 0, 150.29 0, 182 0 C203.33 0, 214 10.67, 214 32 C214 53.94, 214 75.88, 214 110 C214 131.33, 203.33 142, 182 142 C145.96 142, 109.91 142, 32 142 C10.67 142, 0 131.33, 0 110 C0 88.58, 0 67.17, 0 32 C0 10.67, 10.67 0, 32 0" stroke="none" stroke-width="0" fill="#a5d8ff"></path><path d="M32 0 C73.45 0, 114.9 0, 182 0 M32 0 C67.98 0, 103.96 0, 182 0 M182 0 C203.33 0, 214 10.67, 214 32 M182 0 C203.33 0, 214 10.67, 214 32 M214 32 C214 57.4, 214 82.8, 214 110 M214 32 C214 53.28, 214 74.55, 214 110 M214 110 C214 131.33, 203.33 142, 182 142 M214 110 C214 131.33, 203.33 142, 182 142 M182 142 C128.44 142, 74.89 142, 32 142 M182 142 C148.16 142, 114.32 142, 32 142 M32 142 C10.67 142, 0 131.33, 0 110 M32 142 C10.67 142, 0 131.33, 0 110 M0 110 C0 82.24, 0 54.48, 0 32 M0 110 C0 88.8, 0 67.6, 0 32 M0 32 C0 10.67, 10.67 0, 32 0 M0 32 C0 10.67, 10.67 0, 32 0" stroke="#1e1e1e" stroke-width="2" fill="none"></path></g><g transform="translate(2208.0703781724505 751.9416860002061) rotate(0 97.04988861083984 12.5)"><text x="97.04988861083984" y="0" font-family="Virgil, Segoe UI Emoji" font-size="20px" fill="#1e1e1e" text-anchor="middle" style="white-space: pre;" direction="ltr" dominant-baseline="text-before-edge">notify-user-rejected</text></g><g stroke-linecap="round" transform="translate(2181.4965265772535 434.0971847559408) rotate(0 109.02409563537162 83.45018686712501)"><path d="M137.5 21 C148.97 30.08, 160.43 39.16, 190.55 63 C218.05 84, 218.05 84, 190.55 105 C175.2 116.84, 159.85 128.67, 137.5 145.9 C110 166.9, 110 166.9, 82.5 145.9 C70.69 137.12, 58.88 128.34, 27.5 105 C0 84, 0 84, 27.5 63 C43.26 50.97, 59.02 38.93, 82.5 21 C110 0, 110 0, 137.5 21" stroke="none" stroke-width="0" fill="#ffec99"></path><path d="M137.5 21 C154.4 34.38, 171.29 47.75, 190.55 63 M137.5 21 C148.25 29.51, 159 38.02, 190.55 63 M190.55 63 C218.05 84, 218.05 84, 190.55 105 M190.55 63 C218.05 84, 218.05 84, 190.55 105 M190.55 105 C169.39 121.31, 148.23 137.63, 137.5 145.9 M190.55 105 C176.11 116.13, 161.67 127.27, 137.5 145.9 M137.5 145.9 C110 166.9, 110 166.9, 82.5 145.9 M137.5 145.9 C110 166.9, 110 166.9, 82.5 145.9 M82.5 145.9 C66.45 133.97, 50.4 122.03, 27.5 105 M82.5 145.9 C70.21 136.76, 57.93 127.63, 27.5 105 M27.5 105 C0 84, 0 84, 27.5 63 M27.5 105 C0 84, 0 84, 27.5 63 M27.5 63 C44.65 49.91, 61.79 36.81, 82.5 21 M27.5 63 C48.66 46.84, 69.82 30.68, 82.5 21 M82.5 21 C110 0, 110 0, 137.5 21 M82.5 21 C110 0, 110 0, 137.5 21" stroke="#1e1e1e" stroke-width="2" fill="none"></path></g><g transform="translate(2243.198622612713 504.8222781895033) rotate(0 47.30995178222656 12.5)"><text x="47.30995178222656" y="0" font-family="Virgil, Segoe UI Emoji" font-size="20px" fill="#1e1e1e" text-anchor="middle" style="white-space: pre;" direction="ltr" dominant-baseline="text-before-edge">Approved?</text></g><g stroke-linecap="round"><g transform="translate(396.1785212134437 290.96181739301846) rotate(0 52.5000003919813 -0.03942018052634921)"><path d="M0 0 C17.5 -0.01, 87.5 -0.07, 105 -0.08 M0 0 C17.5 -0.01, 87.5 -0.07, 105 -0.08" stroke="#1e1e1e" stroke-width="2" fill="none"></path></g><g transform="translate(396.1785212134437 290.96181739301846) rotate(0 52.5000003919813 -0.03942018052634921)"><path d="M81.51 8.49 C89.23 5.67, 96.95 2.86, 105 -0.08 M81.51 8.49 C88.03 6.11, 94.54 3.74, 105 -0.08" stroke="#1e1e1e" stroke-width="2" fill="none"></path></g><g transform="translate(396.1785212134437 290.96181739301846) rotate(0 52.5000003919813 -0.03942018052634921)"><path d="M81.5 -8.61 C89.22 -5.81, 96.94 -3, 105 -0.08 M81.5 -8.61 C88.02 -6.25, 94.53 -3.88, 105 -0.08" stroke="#1e1e1e" stroke-width="2" fill="none"></path></g></g><mask></mask><g stroke-linecap="round"><g transform="translate(772.9906123370793 290.1482815807922) rotate(0 42.512815459154666 1.4383405548196606)"><path d="M0 0 C14.17 0.48, 70.85 2.4, 85.03 2.88 M0 0 C14.17 0.48, 70.85 2.4, 85.03 2.88" stroke="#1e1e1e" stroke-width="2" fill="none"></path></g><g transform="translate(772.9906123370793 290.1482815807922) rotate(0 42.512815459154666 1.4383405548196606)"><path d="M61.26 10.63 C68.91 8.13, 76.56 5.64, 85.03 2.88 M61.26 10.63 C67.94 8.45, 74.62 6.27, 85.03 2.88" stroke="#1e1e1e" stroke-width="2" fill="none"></path></g><g transform="translate(772.9906123370793 290.1482815807922) rotate(0 42.512815459154666 1.4383405548196606)"><path d="M61.84 -6.46 C69.3 -3.46, 76.77 -0.45, 85.03 2.88 M61.84 -6.46 C68.35 -3.84, 74.87 -1.21, 85.03 2.88" stroke="#1e1e1e" stroke-width="2" fill="none"></path></g></g><mask></mask><g stroke-linecap="round"><g transform="translate(1032.9906123370793 276.8930473104065) rotate(0 60 1)"><path d="M0 0 C20 0.33, 100 1.67, 120 2 M0 0 C20 0.33, 100 1.67, 120 2" stroke="#1e1e1e" stroke-width="2" fill="none"></path></g><g transform="translate(1032.9906123370793 276.8930473104065) rotate(0 60 1)"><path d="M96.37 10.16 C104.86 7.23, 113.34 4.3, 120 2 M96.37 10.16 C102.01 8.21, 107.66 6.26, 120 2" stroke="#1e1e1e" stroke-width="2" fill="none"></path></g><g transform="translate(1032.9906123370793 276.8930473104065) rotate(0 60 1)"><path d="M96.65 -6.94 C105.04 -3.73, 113.42 -0.52, 120 2 M96.65 -6.94 C102.23 -4.8, 107.81 -2.67, 120 2" stroke="#1e1e1e" stroke-width="2" fill="none"></path></g></g><mask></mask><g stroke-linecap="round"><g transform="translate(1374.1818888873722 274.8930473104065) rotate(0 65.5 2)"><path d="M0 0 C21.83 0.67, 109.17 3.33, 131 4 M0 0 C21.83 0.67, 109.17 3.33, 131 4" stroke="#1e1e1e" stroke-width="2" fill="none"></path></g><g transform="translate(1374.1818888873722 274.8930473104065) rotate(0 65.5 2)"><path d="M107.26 11.83 C112.84 9.99, 118.42 8.15, 131 4 M107.26 11.83 C112.77 10.01, 118.27 8.2, 131 4" stroke="#1e1e1e" stroke-width="2" fill="none"></path></g><g transform="translate(1374.1818888873722 274.8930473104065) rotate(0 65.5 2)"><path d="M107.78 -5.26 C113.24 -3.09, 118.7 -0.91, 131 4 M107.78 -5.26 C113.17 -3.11, 118.55 -0.96, 131 4" stroke="#1e1e1e" stroke-width="2" fill="none"></path></g></g><mask></mask><g stroke-linecap="round"><g transform="translate(1665.9932251630541 270.7276754039053) rotate(0 261.2724093744064 1.216712843671985)"><path d="M0 0 C87.09 0.41, 435.45 2.03, 522.54 2.43 M0 0 C87.09 0.41, 435.45 2.03, 522.54 2.43" stroke="#1e1e1e" stroke-width="2" fill="none"></path></g><g transform="translate(1665.9932251630541 270.7276754039053) rotate(0 261.2724093744064 1.216712843671985)"><path d="M499.01 10.87 C507.38 7.87, 515.74 4.87, 522.54 2.43 M499.01 10.87 C504.82 8.79, 510.62 6.71, 522.54 2.43" stroke="#1e1e1e" stroke-width="2" fill="none"></path></g><g transform="translate(1665.9932251630541 270.7276754039053) rotate(0 261.2724093744064 1.216712843671985)"><path d="M499.09 -6.23 C507.43 -3.15, 515.77 -0.07, 522.54 2.43 M499.09 -6.23 C504.88 -4.09, 510.66 -1.95, 522.54 2.43" stroke="#1e1e1e" stroke-width="2" fill="none"></path></g></g><mask></mask><g stroke-linecap="round"><g transform="translate(2292.466712532214 419.6165659020435) rotate(0 0.06322025604697501 -27.80824659444579)"><path d="M0 0 C0.02 -9.27, 0.11 -46.35, 0.13 -55.62 M0 0 C0.02 -9.27, 0.11 -46.35, 0.13 -55.62" stroke="#1e1e1e" stroke-width="2" fill="none"></path></g><g transform="translate(2292.466712532214 419.6165659020435) rotate(0 0.06322025604697501 -27.80824659444579)"><path d="M8.62 -32.1 C5.86 -39.76, 3.09 -47.42, 0.13 -55.62 M8.62 -32.1 C6.31 -38.52, 3.99 -44.93, 0.13 -55.62" stroke="#1e1e1e" stroke-width="2" fill="none"></path></g><g transform="translate(2292.466712532214 419.6165659020435) rotate(0 0.06322025604697501 -27.80824659444579)"><path d="M-8.48 -32.14 C-5.68 -39.79, -2.87 -47.43, 0.13 -55.62 M-8.48 -32.14 C-6.13 -38.55, -3.78 -44.95, 0.13 -55.62" stroke="#1e1e1e" stroke-width="2" fill="none"></path></g></g><mask></mask><g stroke-linecap="round"><g transform="translate(2292.0732958207973 611.580735015079) rotate(0 -0.51394693512907 37.57758246954768)"><path d="M0 0 C-0.17 12.53, -0.86 62.63, -1.03 75.16 M0 0 C-0.17 12.53, -0.86 62.63, -1.03 75.16" stroke="#1e1e1e" stroke-width="2" fill="none"></path></g><g transform="translate(2292.0732958207973 611.580735015079) rotate(0 -0.51394693512907 37.57758246954768)"><path d="M-9.26 51.55 C-6.68 58.94, -4.1 66.34, -1.03 75.16 M-9.26 51.55 C-6.31 60.01, -3.36 68.48, -1.03 75.16" stroke="#1e1e1e" stroke-width="2" fill="none"></path></g><g transform="translate(2292.0732958207973 611.580735015079) rotate(0 -0.51394693512907 37.57758246954768)"><path d="M7.84 51.78 C5.06 59.1, 2.29 66.42, -1.03 75.16 M7.84 51.78 C4.66 60.16, 1.48 68.54, -1.03 75.16" stroke="#1e1e1e" stroke-width="2" fill="none"></path></g></g><mask></mask><g stroke-linecap="round"><g transform="translate(2418.158135287519 753.6768190227253) rotate(0 90.71283722158205 2.058044671904554)"><path d="M0 0 C30.24 0.69, 151.19 3.43, 181.43 4.12 M0 0 C30.24 0.69, 151.19 3.43, 181.43 4.12" stroke="#1e1e1e" stroke-width="2" fill="none"></path></g><g transform="translate(2418.158135287519 753.6768190227253) rotate(0 90.71283722158205 2.058044671904554)"><path d="M157.75 12.13 C167.19 8.93, 176.64 5.74, 181.43 4.12 M157.75 12.13 C164.19 9.95, 170.64 7.77, 181.43 4.12" stroke="#1e1e1e" stroke-width="2" fill="none"></path></g><g transform="translate(2418.158135287519 753.6768190227253) rotate(0 90.71283722158205 2.058044671904554)"><path d="M158.13 -4.97 C167.42 -1.34, 176.72 2.28, 181.43 4.12 M158.13 -4.97 C164.47 -2.49, 170.81 -0.02, 181.43 4.12" stroke="#1e1e1e" stroke-width="2" fill="none"></path></g></g><mask></mask><g stroke-linecap="round" transform="translate(2548.409808403293 205.34110622892467) rotate(0 107 71)"><path d="M32 0 C70.95 0, 109.9 0, 182 0 C203.33 0, 214 10.67, 214 32 C214 47.75, 214 63.49, 214 110 C214 131.33, 203.33 142, 182 142 C148.68 142, 115.36 142, 32 142 C10.67 142, 0 131.33, 0 110 C0 90.68, 0 71.36, 0 32 C0 10.67, 10.67 0, 32 0" stroke="none" stroke-width="0" fill="#a5d8ff"></path><path d="M32 0 C72.5 0, 112.99 0, 182 0 M32 0 C62.17 0, 92.35 0, 182 0 M182 0 C203.33 0, 214 10.67, 214 32 M182 0 C203.33 0, 214 10.67, 214 32 M214 32 C214 60.71, 214 89.41, 214 110 M214 32 C214 59.08, 214 86.16, 214 110 M214 110 C214 131.33, 203.33 142, 182 142 M214 110 C214 131.33, 203.33 142, 182 142 M182 142 C139.32 142, 96.65 142, 32 142 M182 142 C144.11 142, 106.22 142, 32 142 M32 142 C10.67 142, 0 131.33, 0 110 M32 142 C10.67 142, 0 131.33, 0 110 M0 110 C0 79.11, 0 48.22, 0 32 M0 110 C0 87.35, 0 64.71, 0 32 M0 32 C0 10.67, 10.67 0, 32 0 M0 32 C0 10.67, 10.67 0, 32 0" stroke="#1e1e1e" stroke-width="2" fill="none"></path></g><g transform="translate(2575.2998917162813 263.8411062289247) rotate(0 80.10991668701172 12.5)"><text x="80.10991668701172" y="0" font-family="Virgil, Segoe UI Emoji" font-size="20px" fill="#1e1e1e" text-anchor="middle" style="white-space: pre;" direction="ltr" dominant-baseline="text-before-edge">create-customer</text></g><g stroke-linecap="round"><g transform="translate(2416.7576720768775 280.88686120657076) rotate(0 61.36769219822099 1.7046581166173382)"><path d="M0 0 C20.46 0.57, 102.28 2.84, 122.74 3.41 M0 0 C20.46 0.57, 102.28 2.84, 122.74 3.41" stroke="#1e1e1e" stroke-width="2" fill="none"></path></g><g transform="translate(2416.7576720768775 280.88686120657076) rotate(0 61.36769219822099 1.7046581166173382)"><path d="M99.01 11.3 C106.7 8.75, 114.39 6.19, 122.74 3.41 M99.01 11.3 C107.73 8.4, 116.46 5.5, 122.74 3.41" stroke="#1e1e1e" stroke-width="2" fill="none"></path></g><g transform="translate(2416.7576720768775 280.88686120657076) rotate(0 61.36769219822099 1.7046581166173382)"><path d="M99.49 -5.79 C107.02 -2.81, 114.56 0.17, 122.74 3.41 M99.49 -5.79 C108.04 -2.41, 116.58 0.97, 122.74 3.41" stroke="#1e1e1e" stroke-width="2" fill="none"></path></g></g><mask></mask><g stroke-linecap="round"><g transform="translate(2770.190121588854 285.3907377197479) rotate(0 65.05859131500415 0.8496404850552608)"><path d="M0 0 C21.69 0.28, 108.43 1.42, 130.12 1.7 M0 0 C21.69 0.28, 108.43 1.42, 130.12 1.7" stroke="#1e1e1e" stroke-width="2" fill="none"></path></g><g transform="translate(2770.190121588854 285.3907377197479) rotate(0 65.05859131500415 0.8496404850552608)"><path d="M106.52 9.94 C114.13 7.28, 121.74 4.62, 130.12 1.7 M106.52 9.94 C113.81 7.39, 121.11 4.85, 130.12 1.7" stroke="#1e1e1e" stroke-width="2" fill="none"></path></g><g transform="translate(2770.190121588854 285.3907377197479) rotate(0 65.05859131500415 0.8496404850552608)"><path d="M106.74 -7.16 C114.28 -4.3, 121.82 -1.44, 130.12 1.7 M106.74 -7.16 C113.96 -4.42, 121.19 -1.68, 130.12 1.7" stroke="#1e1e1e" stroke-width="2" fill="none"></path></g></g><mask></mask><g stroke-linecap="round"><g transform="translate(1587.2803455579522 348.1371059505018) rotate(0 0.9190252017763214 50.754456628457774)"><path d="M-0.29 -0.43 C0.27 16.5, 2.45 84.33, 2.79 101.5 M1.76 -1.7 C2.3 15.44, 2.47 85.95, 2.34 103.03" stroke="#1e1e1e" stroke-width="2" fill="none"></path></g><g transform="translate(1587.2803455579522 348.1371059505018) rotate(0 0.9190252017763214 50.754456628457774)"><path d="M-6.18 79.52 C-4.75 87.05, -1.92 91.26, 2.34 103.03 M-6.18 79.52 C-2.22 88.08, 0.79 97.23, 2.34 103.03" stroke="#1e1e1e" stroke-width="2" fill="none"></path></g><g transform="translate(1587.2803455579522 348.1371059505018) rotate(0 0.9190252017763214 50.754456628457774)"><path d="M10.92 79.55 C8.04 87.02, 6.57 91.23, 2.34 103.03 M10.92 79.55 C8.23 88.02, 4.6 97.17, 2.34 103.03" stroke="#1e1e1e" stroke-width="2" fill="none"></path></g></g><mask></mask><g stroke-linecap="round"><g transform="translate(1740.2415198917797 528.4121531952696) rotate(0 51.596448616328644 -0.2714778524743906)"><path d="M0.8 -0.75 C17.92 -0.91, 86.55 -1.37, 103.48 -1.22 M-0.24 1.47 C16.68 1.47, 85.16 0.51, 102.68 -0.04" stroke="#1e1e1e" stroke-width="1" fill="none"></path></g><g transform="translate(1740.2415198917797 528.4121531952696) rotate(0 51.596448616328644 -0.2714778524743906)"><path d="M79.38 9.01 C86.67 6.02, 95.33 0.94, 102.68 -0.04 M79.38 9.01 C87.05 5.7, 95.73 2.18, 102.68 -0.04" stroke="#1e1e1e" stroke-width="1" fill="none"></path></g><g transform="translate(1740.2415198917797 528.4121531952696) rotate(0 51.596448616328644 -0.2714778524743906)"><path d="M79.02 -8.09 C86.41 -4.82, 95.19 -3.65, 102.68 -0.04 M79.02 -8.09 C86.8 -5.27, 95.61 -2.67, 102.68 -0.04" stroke="#1e1e1e" stroke-width="1" fill="none"></path></g></g><mask></mask><g stroke-linecap="round"><g transform="translate(2086.140600295456 532.9501601769903) rotate(0 45.80856150415468 -0.9493107353098367)"><path d="M0.24 0.35 C15.79 0.29, 77.34 -0.83, 92.75 -1.16 M-1.09 -0.51 C14.44 -0.84, 76.79 -2.95, 92.4 -2.89" stroke="#1e1e1e" stroke-width="1" fill="none"></path></g><g transform="translate(2086.140600295456 532.9501601769903) rotate(0 45.80856150415468 -0.9493107353098367)"><path d="M69.06 6.07 C75.73 5.6, 82.4 3.24, 92.4 -2.89 M69.06 6.07 C76.35 3.72, 84.67 0.63, 92.4 -2.89" stroke="#1e1e1e" stroke-width="1" fill="none"></path></g><g transform="translate(2086.140600295456 532.9501601769903) rotate(0 45.80856150415468 -0.9493107353098367)"><path d="M68.76 -11.03 C75.4 -7.09, 82.14 -5.03, 92.4 -2.89 M68.76 -11.03 C76.01 -7.85, 84.43 -5.42, 92.4 -2.89" stroke="#1e1e1e" stroke-width="1" fill="none"></path></g></g><mask></mask></svg>